#!OML:ASF H:\Terrain\Patient Classification 1\Walking\liu\liu.ASF
:FULLY-SPECIFIED
:DEGREES
16
root 7.32434 15.6228 -32.0988 5.80599 3.62092 3.42281
lowerback -6.79701 -3.99791 -5.33528
upperback -1.36199 -5.02589 2.71974
thorax 3.09544 -2.57393 5.32705
lowerneck -22.7276 -0.423284 -11.0505
upperneck 20.8065 1.27947 7.72978
head 10.2707 0.65749 4.81338
rclavicle 2.51463e-014 1.66979e-014
rhumerus -47.955 -4.39782 -70.2994
rradius 14.9549
rwrist 11.9775
rhand -27.2097 -20.8713
rfingers 7.12502
rthumb -0.622575 -50.8502
lclavicle 2.51463e-014 1.66979e-014
lhumerus -11.3894 -23.3227 87.4225
lradius 43.9708
lwrist 12.4232
lhand -17.7235 -29.281
lfingers 7.12502
lthumb 8.53717 0.526411
rfemur -40.2532 4.76953 15.6024
rtibia 31.9833
rfoot -7.83226 -2.14537
rtoes -21.6189
lfemur 23.3535 7.0057 -24.6193
ltibia 5.08889e-014
lfoot -7.60736 -3.99031
ltoes -18.4754
17
root 7.30737 15.6024 -31.8651 5.47372 3.53869 2.70366
lowerback -6.57999 -4.01349 -4.6702
upperback -1.37209 -5.10952 2.93371
thorax 2.9375 -2.6064 5.18205
lowerneck -22.8612 -0.292218 -10.9189
upperneck 21.091 1.43009 7.71144
head 10.3823 0.729661 4.82037
rclavicle -4.62547e-014 6.36111e-015
rhumerus -48.1147 -7.47328 -66.9958
rradius 13.7136
rwrist 15.8371
rhand -27.5714 -18.469
rfingers 7.12502
rthumb -0.971958 -48.4466
lclavicle -4.62547e-014 6.36111e-015
lhumerus -12.229 -22.9669 87.7208
lradius 44.355
lwrist 12.4382
lhand -16.8633 -29.8493
lfingers 7.12502
lthumb 9.36721 -0.0774581
rfemur -39.9356 4.80901 16.6091
rtibia 33.0473
rfoot -6.23261 -1.46741
rtoes -19.175
lfemur 24.2955 7.04089 -23.5294
ltibia 2.54444e-014
lfoot -5.50827 -3.85775
ltoes -15.7789
18
root 7.29351 15.575 -31.6281 5.1635 3.36527 2.05696
lowerback -6.57432 -3.99159 -3.97584
upperback -1.32119 -5.1327 3.08118
thorax 2.94352 -2.61319 4.94177
lowerneck -22.8106 -0.358759 -11.1817
upperneck 21.1347 1.3776 7.88739
head 10.3907 0.704109 4.92247
rclavicle 1.22253e-014 2.22639e-014
rhumerus -48.3139 -10.3476 -63.9618
rradius 12.8142
rwrist 19.9615
rhand -26.5762 -17.2102
rfingers 7.12502
rthumb -0.0107767 -47.19
lclavicle 1.22253e-014 2.22639e-014
lhumerus -13.1557 -22.6704 87.9698
lradius 44.8895
lwrist 12.8988
lhand -15.4115 -29.7428
lfingers 7.12502
lthumb 10.7679 -0.0388047
rfemur -39.54 4.27091 17.8935
rtibia 34.2461
rfoot -5.25417 -0.402129
rtoes -16.9464
lfemur 25.5213 7.18667 -22.6188
ltibia 6.99722e-014
lfoot -3.70673 -2.66485
ltoes -18.1073
19
root 7.28137 15.5645 -31.3884 4.95263 3.28487 1.56634
lowerback -6.92439 -3.99759 -3.31744
upperback -1.11504 -5.18084 3.11605
thorax 3.30395 -2.64037 4.57197
lowerneck -22.714 -0.360176 -11.3547
upperneck 20.9078 1.38061 8.08103
head 10.2867 0.720318 5.01178
rclavicle -7.95511e-014 1.03368e-014
rhumerus -48.2921 -11.9253 -62.6676
rradius 12.5817
rwrist 21.5383
rhand -26.5185 -19.0061
rfingers 7.12502
rthumb 0.0449449 -48.9859
lclavicle -7.95511e-014 1.03368e-014
lhumerus -13.8669 -22.627 88.1431
lradius 45.2299
lwrist 12.9039
lhand -15.5381 -29.1838
lfingers 7.12502
lthumb 10.6458 0.526508
rfemur -39.1595 3.47725 19.0968
rtibia 35.4967
rfoot -4.86924 0.735053
rtoes -15.944
lfemur 26.5636 7.23931 -21.9306
ltibia -3.18055e-014
lfoot -1.15817 -0.749913
ltoes -21.7791
20
root 7.26654 15.5692 -31.1558 4.66906 3.18856 0.981912
lowerback -6.53284 -4.07692 -2.88745
upperback -1.29186 -5.33133 3.38312
thorax 2.90495 -2.70309 4.62615
lowerneck -22.6329 0.0506092 -10.7048
upperneck 21.2934 1.81682 7.65942
head 10.373 0.911363 4.8233
rclavicle 6.60602e-014 3.18055e-015
rhumerus -48.6766 -12.969 -61.1688
rradius 12.4325
rwrist 23.2592
rhand -26.6027 -20.5895
rfingers 7.12502
rthumb -0.0363299 -50.5692
lclavicle 6.60602e-014 3.18055e-015
lhumerus -15.2935 -22.1148 88.8123
lradius 45.3532
lwrist 12.0007
lhand -16.4081 -28.8791
lfingers 7.12502
lthumb 9.80648 0.872584
rfemur -38.6291 3.20788 20.2145
rtibia 36.7214
rfoot -4.94291 1.46974
rtoes -15.7452
lfemur 21.7522 7.2883 -21.0954
ltibia 11.0082
lfoot -2.55501 -0.290843
ltoes -18.5861
21
root 7.25163 15.5783 -30.9314 4.33649 3.1504 0.478535
lowerback -6.12523 -4.17002 -2.51819
upperback -1.35429 -5.49012 3.57779
thorax 2.61465 -2.77507 4.63689
lowerneck -22.8487 0.102795 -10.7203
upperneck 21.5979 1.94534 7.53792
head 10.5117 0.947836 4.81694
rclavicle -2.97929e-014 1.66979e-014
rhumerus -48.9977 -15.1296 -58.7487
rradius 11.8683
rwrist 26.7269
rhand -26.2187 -20.2551
rfingers 7.12502
rthumb 0.334483 -50.2345
lclavicle -2.97929e-014 1.66979e-014
lhumerus -16.4573 -21.5149 89.2993
lradius 45.395
lwrist 11.3302
lhand -16.5954 -28.9658
lfingers 7.12502
lthumb 9.62576 0.794313
rfemur -37.9847 3.36723 21.0251
rtibia 37.7901
rfoot -5.11178 1.87676
rtoes -16.0583
lfemur 19.6797 8.05239 -19.9564
ltibia 16.7806
lfoot -1.32849 -0.677496
ltoes -15.5589
22
root 7.23663 15.5879 -30.7093 4.24284 3.19517 0.216715
lowerback -6.0883 -4.30145 -2.42876
upperback -1.37751 -5.67901 3.83683
thorax 2.60748 -2.87037 4.84131
lowerneck -23.1967 0.20478 -10.8477
upperneck 21.9734 2.19274 7.4422
head 10.6874 1.03105 4.86237
rclavicle 1.27036e-014 -8.74653e-015
rhumerus -48.9867 -16.8262 -56.6805
rradius 11.4243
rwrist 29.4212
rhand -25.1301 -18.9341
rfingers 7.12502
rthumb 1.38595 -48.9094
lclavicle 1.27036e-014 -8.74653e-015
lhumerus -17.3506 -20.9604 89.8907
lradius 45.4484
lwrist 11.2029
lhand -17.0012 -29.1613
lfingers 7.12502
lthumb 9.23422 0.616482
rfemur -37.4745 3.22141 21.6128
rtibia 38.6067
rfoot -5.55423 2.45103
rtoes -17.5847
lfemur 17.7899 8.98206 -19.0945
ltibia 21.7204
lfoot -0.248763 -0.842258
ltoes -20.8455
23
root 7.21747 15.591 -30.4915 4.20889 3.10917 -0.210991
lowerback -6.09679 -4.49506 -2.27963
upperback -1.445 -5.95749 4.23197
thorax 2.59936 -3.01049 5.14409
lowerneck -23.366 0.423427 -10.9679
upperneck 22.2514 2.60996 7.25137
head 10.7785 1.18015 4.8875
rclavicle 3.8645e-014 3.18055e-015
rhumerus -48.6994 -17.3002 -55.5778
rradius 11.3472
rwrist 30.8792
rhand -23.8528 -18.0504
rfingers 7.12502
rthumb 2.61954 -48.0141
lclavicle 3.8645e-014 3.18055e-015
lhumerus -18.3998 -19.9561 90.4268
lradius 45.585
lwrist 11.2263
lhand -16.964 -29.1174
lfingers 7.12502
lthumb 9.27005 0.658801
rfemur -36.8655 3.00226 22.4623
rtibia 39.1263
rfoot -6.24686 2.80836
rtoes -18.0646
lfemur 15.9029 10.063 -18.0878
ltibia 26.4061
lfoot 0.863255 -0.808573
ltoes -23.6589
24
root 7.19782 15.6054 -30.2771 4.0631 3.1763 -0.816603
lowerback -5.72763 -4.74035 -1.98132
upperback -1.62914 -6.3103 4.64245
thorax 2.25673 -3.1802 5.40904
lowerneck -23.4281 0.675401 -10.9357
upperneck 22.4889 3.02066 7.01421
head 10.8394 1.33274 4.86485
rclavicle -6.62823e-014 1.74931e-014
rhumerus -48.1006 -15.7074 -56.6778
rradius 11.6932
rwrist 29.1003
rhand -23.8165 -19.9732
rfingers 7.12502
rthumb 2.65461 -49.9365
lclavicle -6.62823e-014 1.74931e-014
lhumerus -19.6229 -18.8544 90.9765
lradius 45.4599
lwrist 10.7546
lhand -16.594 -28.7581
lfingers 7.12502
lthumb 9.6271 1.0019
rfemur -35.9655 2.94262 23.3825
rtibia 39.3546
rfoot -6.81508 2.77238
rtoes -15.9543
lfemur 14.0409 10.6833 -16.9895
ltibia 30.9503
lfoot 2.54201 -0.297878
ltoes -22.6708
25
root 7.1811 15.6395 -30.0617 3.95735 3.34357 -1.41908
lowerback -5.54748 -4.72322 -1.51908
upperback -1.64927 -6.3147 4.78432
thorax 2.10278 -3.17794 5.3146
lowerneck -23.8021 0.587234 -10.819
upperneck 22.7567 2.89847 7.00551
head 11.024 1.27962 4.84705
rclavicle -5.76476e-015 -3.26007e-014
rhumerus -47.8344 -15.1892 -57.6113
rradius 11.9807
rwrist 27.3591
rhand -23.9547 -20.9875
rfingers 7.12502
rthumb 2.52109 -50.9524
lclavicle -5.76476e-015 -3.26007e-014
lhumerus -20.4368 -19.0694 91.4636
lradius 44.9641
lwrist 9.89988
lhand -17.1189 -28.6568
lfingers 7.12502
lthumb 9.12058 1.12603
rfemur -34.9446 2.93393 24.1964
rtibia 39.3126
rfoot -7.51551 2.84721
rtoes -14.0126
lfemur 12.0901 10.8604 -16.0537
ltibia 35.3024
lfoot 4.6952 0.951722
ltoes -18.9032
26
root 7.16592 15.6749 -29.8497 3.8679 3.42074 -2.08555
lowerback -5.54171 -4.39942 -0.841669
upperback -1.5634 -5.9189 4.72726
thorax 2.0718 -2.97543 4.90917
lowerneck -24.013 0.189753 -10.6367
upperneck 22.8031 2.29685 7.0016
head 11.1484 1.02095 4.73414
rclavicle 3.16068e-014 7.15625e-015
rhumerus -48.1395 -16.1603 -57.5474
rradius 12.1581
rwrist 26.6901
rhand -23.4418 -20.1389
rfingers 7.12502
rthumb 3.01646 -50.0973
lclavicle 3.16068e-014 7.15625e-015
lhumerus -21.0849 -20.1346 91.8956
lradius 44.5163
lwrist 9.59496
lhand -17.222 -29.1865
lfingers 7.12502
lthumb 9.02108 0.600589
rfemur -33.8236 2.82655 25.1221
rtibia 39.0652
rfoot -8.2995 3.09697
rtoes -12.9996
lfemur 10.0791 10.982 -15.1278
ltibia 39.4975
lfoot 6.69662 2.65778
ltoes -11.1357
27
root 7.15033 15.7153 -29.6404 3.73822 3.63483 -2.82892
lowerback -5.4108 -4.35975 -0.249897
upperback -1.56085 -5.89992 4.9449
thorax 1.96356 -2.96268 4.81753
lowerneck -23.8413 0.0800423 -10.587
upperneck 22.5893 2.14547 6.86041
head 11.0559 0.94285 4.63681
rclavicle -5.63927e-014 -2.38542e-015
rhumerus -47.8565 -15.6872 -58.3675
rradius 12.3627
rwrist 24.2789
rhand -23.7613 -19.6429
rfingers 7.12502
rthumb 2.70786 -49.6055
lclavicle -5.63927e-014 -2.38542e-015
lhumerus -21.8416 -20.0373 92.3757
lradius 44.046
lwrist 9.32865
lhand -16.6964 -29.8261
lfingers 7.12502
lthumb 9.52833 -0.0615753
rfemur -32.5518 2.45199 26.1687
rtibia 38.6296
rfoot -8.89389 3.35002
rtoes -12.4301
lfemur 8.01635 11.0262 -14.0991
ltibia 43.5836
lfoot 8.29269 4.13905
ltoes -17.5843
28
root 7.1384 15.7576 -29.4361 3.57039 4.09529 -3.50866
lowerback -5.3359 -4.58014 0.235555
upperback -1.42616 -6.2308 5.22013
thorax 2.07001 -3.12952 4.80577
lowerneck -23.8794 0.181028 -10.482
upperneck 22.3635 2.27374 6.79156
head 10.9677 1.00861 4.60404
rclavicle -3.78188e-014 -3.97569e-015
rhumerus -46.9527 -14.8321 -59.6423
rradius 12.2767
rwrist 21.1227
rhand -25.0725 -17.2678
rfingers 7.12502
rthumb 1.44157 -47.2427
lclavicle -3.78188e-014 -3.97569e-015
lhumerus -22.285 -19.4557 92.6114
lradius 43.3638
lwrist 8.81565
lhand -16.4368 -30.0128
lfingers 7.12502
lthumb 9.77877 -0.25981
rfemur -31.2313 1.87628 27.1129
rtibia 38.0188
rfoot -9.38808 3.47664
rtoes -12.4448
lfemur 5.90939 10.8667 -13.2136
ltibia 47.5139
lfoot 9.15917 5.18348
ltoes -18.6509
29
root 7.1303 15.7874 -29.2378 3.4579 4.63606 -4.2274
lowerback -5.1905 -4.51554 0.97202
upperback -1.39415 -6.17748 5.23746
thorax 1.94176 -3.09706 4.42981
lowerneck -24.0185 0.0377005 -10.1233
upperneck 22.422 1.94929 6.80719
head 11.0519 0.893623 4.50767
rclavicle -4.68138e-014 -3.57812e-014
rhumerus -46.6042 -13.743 -61.608
rradius 12.3347
rwrist 16.6233
rhand -26.173 -13.7261
rfingers 7.12502
rthumb 0.378674 -43.7055
lclavicle -4.68138e-014 -3.57812e-014
lhumerus -22.911 -19.9544 92.9703
lradius 42.6752
lwrist 8.47206
lhand -16.4612 -29.7821
lfingers 7.12502
lthumb 9.7552 -0.0280751
rfemur -29.9841 1.43942 28.0389
rtibia 37.2802
rfoot -9.90192 3.38684
rtoes -12.6021
lfemur 3.69596 10.6688 -12.3731
ltibia 51.2739
lfoot 9.02949 6.32108
ltoes -16.922
30
root 7.12297 15.8159 -29.0345 3.39356 4.88501 -5.19817
lowerback -5.06003 -4.31391 1.93017
upperback -1.48312 -5.9466 5.40812
thorax 1.6812 -2.9753 4.1088
lowerneck -24.1978 -0.189494 -10.0078
upperneck 22.7359 1.59814 6.81957
head 11.2399 0.73858 4.45656
rclavicle 2.51214e-014 -1.66979e-014
rhumerus -46.4166 -11.7632 -64.0985
rradius 12.6962
rwrist 11.396
rhand -27.2445 -13.8622
rfingers 7.12502
rthumb -0.656226 -43.8409
lclavicle 2.51214e-014 -1.66979e-014
lhumerus -23.7692 -20.2639 93.6227
lradius 41.9503
lwrist 7.97597
lhand -16.4212 -29.3989
lfingers 7.12502
lthumb 9.79378 0.353342
rfemur -28.7156 1.35656 29.1961
rtibia 36.5068
rfoot -10.3362 3.36478
rtoes -12.5382
lfemur 1.52529 10.7868 -11.2439
ltibia 54.8135
lfoot 7.82135 7.72449
ltoes -16.6475
